<?xml version="1.0" standalone="no"?>
<svg xmlns:xlink="http://www.w3.org/1999/xlink" id="wave" style="transform:rotate(0deg); transition: 0.3s" viewBox="0 0 1440 180" version="1.1" xmlns="http://www.w3.org/2000/svg"><defs><linearGradient id="sw-gradient-0" x1="0" x2="0" y1="1" y2="0"><stop stop-color="rgba(207, 156, 173, 1)" offset="0%"/><stop stop-color="rgba(207, 156, 173, 1)" offset="100%"/></linearGradient></defs><path style="transform:translate(0, 0px); opacity:1" fill="url(#sw-gradient-0)" d="M0,72L80,87C160,102,320,132,480,126C640,120,800,78,960,66C1120,54,1280,72,1440,84C1600,96,1760,102,1920,102C2080,102,2240,96,2400,90C2560,84,2720,78,2880,87C3040,96,3200,120,3360,135C3520,150,3680,156,3840,153C4000,150,4160,138,4320,114C4480,90,4640,54,4800,33C4960,12,5120,6,5280,9C5440,12,5600,24,5760,30C5920,36,6080,36,6240,45C6400,54,6560,72,6720,78C6880,84,7040,78,7200,81C7360,84,7520,96,7680,93C7840,90,8000,72,8160,81C8320,90,8480,126,8640,132C8800,138,8960,114,9120,114C9280,114,9440,138,9600,129C9760,120,9920,78,10080,57C10240,36,10400,36,10560,33C10720,30,10880,24,11040,21C11200,18,11360,18,11440,18L11520,18L11520,180L11440,180C11360,180,11200,180,11040,180C10880,180,10720,180,10560,180C10400,180,10240,180,10080,180C9920,180,9760,180,9600,180C9440,180,9280,180,9120,180C8960,180,8800,180,8640,180C8480,180,8320,180,8160,180C8000,180,7840,180,7680,180C7520,180,7360,180,7200,180C7040,180,6880,180,6720,180C6560,180,6400,180,6240,180C6080,180,5920,180,5760,180C5600,180,5440,180,5280,180C5120,180,4960,180,4800,180C4640,180,4480,180,4320,180C4160,180,4000,180,3840,180C3680,180,3520,180,3360,180C3200,180,3040,180,2880,180C2720,180,2560,180,2400,180C2240,180,2080,180,1920,180C1760,180,1600,180,1440,180C1280,180,1120,180,960,180C800,180,640,180,480,180C320,180,160,180,80,180L0,180Z"/></svg>